<mxfile host="app.diagrams.net" modified="2021-11-12T09:21:52.887Z" agent="5.0 (Macintosh; Intel Mac OS X 10_14_6) AppleWebKit/537.36 (KHTML, like Gecko) Chrome/93.0.4577.82 Safari/537.36 Edg/93.0.961.52" etag="fIcZGzUwQ-W6alisz8CF" version="14.8.6" type="github">
  <diagram id="kgpKYQtTHZ0yAKxKKP6v" name="Page-1">
    <mxGraphModel dx="946" dy="614" grid="1" gridSize="10" guides="1" tooltips="1" connect="1" arrows="1" fold="1" page="1" pageScale="1" pageWidth="1100" pageHeight="850" background="none" math="0" shadow="0">
      <root>
        <mxCell id="0" />
        <mxCell id="1" parent="0" />
        <mxCell id="3nuBFxr9cyL0pnOWT2aG-1" value="游戏APP" style="shape=umlLifeline;perimeter=lifelinePerimeter;container=1;collapsible=0;recursiveResize=0;shadow=0;strokeWidth=1;fillColor=#B2C9AB;strokeColor=#788AA3;gradientDirection=south;perimeterSpacing=0;fontColor=#46495D;rounded=1;glass=0;sketch=0;" parent="1" vertex="1">
          <mxGeometry x="120" y="80" width="100" height="1200" as="geometry" />
        </mxCell>
        <mxCell id="3nuBFxr9cyL0pnOWT2aG-2" value="" style="points=[];perimeter=orthogonalPerimeter;shadow=0;strokeWidth=1;fillColor=#B2C9AB;strokeColor=#788AA3;fontColor=#46495D;" parent="3nuBFxr9cyL0pnOWT2aG-1" vertex="1">
          <mxGeometry x="45" y="70" width="10" height="670" as="geometry" />
        </mxCell>
        <mxCell id="3nuBFxr9cyL0pnOWT2aG-3" value="用户购买道具" style="verticalAlign=bottom;startArrow=oval;endArrow=block;startSize=8;shadow=0;strokeWidth=1;strokeColor=#788AA3;fontColor=#46495D;" parent="3nuBFxr9cyL0pnOWT2aG-1" target="3nuBFxr9cyL0pnOWT2aG-2" edge="1">
          <mxGeometry relative="1" as="geometry">
            <mxPoint x="-40" y="70" as="sourcePoint" />
          </mxGeometry>
        </mxCell>
        <mxCell id="3nuBFxr9cyL0pnOWT2aG-5" value="手游SDK" style="shape=umlLifeline;perimeter=lifelinePerimeter;container=1;collapsible=0;recursiveResize=0;shadow=0;strokeWidth=1;fillColor=#B2C9AB;strokeColor=#788AA3;fontColor=#46495D;rounded=1;" parent="1" vertex="1">
          <mxGeometry x="290" y="80" width="100" height="1200" as="geometry" />
        </mxCell>
        <mxCell id="3nuBFxr9cyL0pnOWT2aG-6" value="" style="points=[];perimeter=orthogonalPerimeter;shadow=0;strokeWidth=1;fillColor=#B2C9AB;strokeColor=#788AA3;fontColor=#46495D;" parent="3nuBFxr9cyL0pnOWT2aG-5" vertex="1">
          <mxGeometry x="45" y="80" width="10" height="640" as="geometry" />
        </mxCell>
        <mxCell id="3nuBFxr9cyL0pnOWT2aG-8" value="调用支付方法" style="verticalAlign=bottom;endArrow=block;entryX=0;entryY=0;shadow=0;strokeWidth=1;strokeColor=#788AA3;fontColor=#46495D;" parent="1" source="3nuBFxr9cyL0pnOWT2aG-2" target="3nuBFxr9cyL0pnOWT2aG-6" edge="1">
          <mxGeometry relative="1" as="geometry">
            <mxPoint x="275" y="160" as="sourcePoint" />
          </mxGeometry>
        </mxCell>
        <mxCell id="mdC14NxBIMde7mDdin4W-1" value="SDK服务端" style="shape=umlLifeline;perimeter=lifelinePerimeter;container=1;collapsible=0;recursiveResize=0;shadow=0;strokeWidth=1;fillColor=#B2C9AB;strokeColor=#788AA3;fontColor=#46495D;rounded=1;" vertex="1" parent="1">
          <mxGeometry x="460" y="80" width="100" height="1200" as="geometry" />
        </mxCell>
        <mxCell id="mdC14NxBIMde7mDdin4W-3" value="虎管家服务端" style="shape=umlLifeline;perimeter=lifelinePerimeter;container=1;collapsible=0;recursiveResize=0;shadow=0;strokeWidth=1;fillColor=#B2C9AB;strokeColor=#788AA3;fontColor=#46495D;rounded=1;" vertex="1" parent="1">
          <mxGeometry x="630" y="80" width="100" height="1200" as="geometry" />
        </mxCell>
        <mxCell id="mdC14NxBIMde7mDdin4W-4" value="" style="points=[];perimeter=orthogonalPerimeter;shadow=0;strokeWidth=1;fillColor=#B2C9AB;strokeColor=#788AA3;fontColor=#46495D;" vertex="1" parent="mdC14NxBIMde7mDdin4W-3">
          <mxGeometry x="45" y="240" width="10" height="160" as="geometry" />
        </mxCell>
        <mxCell id="mdC14NxBIMde7mDdin4W-5" value="游戏服务端" style="shape=umlLifeline;perimeter=lifelinePerimeter;container=1;collapsible=0;recursiveResize=0;shadow=0;strokeWidth=1;fillColor=#B2C9AB;strokeColor=#788AA3;fontColor=#46495D;rounded=1;" vertex="1" parent="1">
          <mxGeometry x="950" y="80" width="100" height="1200" as="geometry" />
        </mxCell>
        <mxCell id="mdC14NxBIMde7mDdin4W-7" value="支付宝" style="shape=umlLifeline;perimeter=lifelinePerimeter;container=1;collapsible=0;recursiveResize=0;shadow=0;strokeWidth=1;fillColor=#B2C9AB;strokeColor=#788AA3;fontColor=#46495D;rounded=1;" vertex="1" parent="1">
          <mxGeometry x="800" y="80" width="100" height="1200" as="geometry" />
        </mxCell>
        <mxCell id="mdC14NxBIMde7mDdin4W-8" value="" style="points=[];perimeter=orthogonalPerimeter;shadow=0;strokeWidth=1;fillColor=#B2C9AB;strokeColor=#788AA3;fontColor=#46495D;" vertex="1" parent="mdC14NxBIMde7mDdin4W-7">
          <mxGeometry x="45" y="340" width="10" height="30" as="geometry" />
        </mxCell>
        <mxCell id="mdC14NxBIMde7mDdin4W-9" value="" style="points=[];perimeter=orthogonalPerimeter;shadow=0;strokeWidth=1;fillColor=#B2C9AB;strokeColor=#788AA3;fontColor=#46495D;" vertex="1" parent="1">
          <mxGeometry x="505" y="190" width="10" height="470" as="geometry" />
        </mxCell>
        <mxCell id="mdC14NxBIMde7mDdin4W-11" value="提交订单信息" style="verticalAlign=bottom;endArrow=block;entryX=0;entryY=0;shadow=0;strokeWidth=1;strokeColor=#788AA3;fontColor=#46495D;" edge="1" parent="1">
          <mxGeometry relative="1" as="geometry">
            <mxPoint x="345" y="190.0000000000001" as="sourcePoint" />
            <mxPoint x="505" y="190.0000000000001" as="targetPoint" />
          </mxGeometry>
        </mxCell>
        <mxCell id="mdC14NxBIMde7mDdin4W-12" value="提交支付信息" style="verticalAlign=bottom;endArrow=block;entryX=0.5;entryY=-0.006;shadow=0;strokeWidth=1;strokeColor=#788AA3;fontColor=#46495D;entryDx=0;entryDy=0;entryPerimeter=0;exitX=1.2;exitY=0.275;exitDx=0;exitDy=0;exitPerimeter=0;" edge="1" parent="1" source="mdC14NxBIMde7mDdin4W-9" target="mdC14NxBIMde7mDdin4W-4">
          <mxGeometry relative="1" as="geometry">
            <mxPoint x="514" y="333" as="sourcePoint" />
            <mxPoint x="690" y="334.5000000000001" as="targetPoint" />
          </mxGeometry>
        </mxCell>
        <mxCell id="mdC14NxBIMde7mDdin4W-13" value="提交支付请求" style="verticalAlign=bottom;endArrow=block;shadow=0;strokeWidth=1;strokeColor=#788AA3;fontColor=#46495D;exitX=1;exitY=0.644;exitDx=0;exitDy=0;exitPerimeter=0;" edge="1" parent="1" source="mdC14NxBIMde7mDdin4W-4" target="mdC14NxBIMde7mDdin4W-8">
          <mxGeometry relative="1" as="geometry">
            <mxPoint x="690" y="230.0000000000001" as="sourcePoint" />
            <mxPoint x="850" y="230" as="targetPoint" />
          </mxGeometry>
        </mxCell>
        <mxCell id="mdC14NxBIMde7mDdin4W-14" value="" style="points=[];perimeter=orthogonalPerimeter;shadow=0;strokeWidth=1;fillColor=#B2C9AB;strokeColor=#788AA3;fontColor=#46495D;" vertex="1" parent="1">
          <mxGeometry x="510" y="220" width="10" height="80" as="geometry" />
        </mxCell>
        <mxCell id="mdC14NxBIMde7mDdin4W-16" value="生成业务订单" style="verticalAlign=bottom;endArrow=block;entryX=0.9;entryY=0.825;shadow=0;strokeWidth=1;strokeColor=#788AA3;fontColor=#46495D;edgeStyle=orthogonalEdgeStyle;entryDx=0;entryDy=0;entryPerimeter=0;exitX=1.1;exitY=0.188;exitDx=0;exitDy=0;exitPerimeter=0;" edge="1" parent="1" source="mdC14NxBIMde7mDdin4W-14" target="mdC14NxBIMde7mDdin4W-14">
          <mxGeometry relative="1" as="geometry">
            <mxPoint x="520" y="220.0000000000001" as="sourcePoint" />
            <mxPoint x="680" y="220.0000000000001" as="targetPoint" />
            <Array as="points">
              <mxPoint x="560" y="235" />
              <mxPoint x="560" y="286" />
            </Array>
          </mxGeometry>
        </mxCell>
        <mxCell id="mdC14NxBIMde7mDdin4W-17" value="返回支付URL" style="verticalAlign=bottom;endArrow=block;entryX=1.2;entryY=0.8;shadow=0;strokeWidth=1;strokeColor=#788AA3;fontColor=#46495D;exitX=-0.2;exitY=0.891;exitDx=0;exitDy=0;exitPerimeter=0;entryDx=0;entryDy=0;entryPerimeter=0;" edge="1" parent="1" source="mdC14NxBIMde7mDdin4W-8" target="mdC14NxBIMde7mDdin4W-4">
          <mxGeometry relative="1" as="geometry">
            <mxPoint x="550" y="354.5000000000001" as="sourcePoint" />
            <mxPoint x="710" y="354.5000000000001" as="targetPoint" />
          </mxGeometry>
        </mxCell>
        <mxCell id="mdC14NxBIMde7mDdin4W-18" value="返回支付URL" style="verticalAlign=bottom;endArrow=block;entryX=0.9;entryY=0.598;shadow=0;strokeWidth=1;strokeColor=#788AA3;fontColor=#46495D;exitX=-0.1;exitY=0.938;exitDx=0;exitDy=0;exitPerimeter=0;entryDx=0;entryDy=0;entryPerimeter=0;" edge="1" parent="1" source="mdC14NxBIMde7mDdin4W-4" target="mdC14NxBIMde7mDdin4W-9">
          <mxGeometry relative="1" as="geometry">
            <mxPoint x="676" y="470.01" as="sourcePoint" />
            <mxPoint x="520" y="470" as="targetPoint" />
          </mxGeometry>
        </mxCell>
        <mxCell id="mdC14NxBIMde7mDdin4W-19" value="" style="points=[];perimeter=orthogonalPerimeter;shadow=0;strokeWidth=1;fillColor=#B2C9AB;strokeColor=#788AA3;fontColor=#46495D;" vertex="1" parent="1">
          <mxGeometry x="510" y="480" width="10" height="80" as="geometry" />
        </mxCell>
        <mxCell id="mdC14NxBIMde7mDdin4W-20" value="更新业务订单" style="verticalAlign=bottom;endArrow=block;entryX=1.2;entryY=0.775;shadow=0;strokeWidth=1;strokeColor=#788AA3;fontColor=#46495D;edgeStyle=orthogonalEdgeStyle;entryDx=0;entryDy=0;entryPerimeter=0;exitX=1;exitY=0.175;exitDx=0;exitDy=0;exitPerimeter=0;" edge="1" parent="1" source="mdC14NxBIMde7mDdin4W-19" target="mdC14NxBIMde7mDdin4W-19">
          <mxGeometry relative="1" as="geometry">
            <mxPoint x="532" y="494.53999999999996" as="sourcePoint" />
            <mxPoint x="530" y="545.5" as="targetPoint" />
            <Array as="points">
              <mxPoint x="571" y="494" />
              <mxPoint x="571" y="542" />
            </Array>
          </mxGeometry>
        </mxCell>
        <mxCell id="mdC14NxBIMde7mDdin4W-21" value="" style="points=[];perimeter=orthogonalPerimeter;shadow=0;strokeWidth=1;fillColor=#B2C9AB;strokeColor=#788AA3;fontColor=#46495D;" vertex="1" parent="1">
          <mxGeometry x="680" y="330" width="10" height="80" as="geometry" />
        </mxCell>
        <mxCell id="mdC14NxBIMde7mDdin4W-22" value="生成ibilling订单" style="verticalAlign=bottom;endArrow=block;entryX=1.2;entryY=0.775;shadow=0;strokeWidth=1;strokeColor=#788AA3;fontColor=#46495D;edgeStyle=orthogonalEdgeStyle;entryDx=0;entryDy=0;entryPerimeter=0;exitX=1;exitY=0.175;exitDx=0;exitDy=0;exitPerimeter=0;" edge="1" parent="1" source="mdC14NxBIMde7mDdin4W-21" target="mdC14NxBIMde7mDdin4W-21">
          <mxGeometry relative="1" as="geometry">
            <mxPoint x="702" y="344.53999999999996" as="sourcePoint" />
            <mxPoint x="700" y="395.5" as="targetPoint" />
            <Array as="points">
              <mxPoint x="741" y="344" />
              <mxPoint x="741" y="392" />
            </Array>
          </mxGeometry>
        </mxCell>
        <mxCell id="mdC14NxBIMde7mDdin4W-23" value="返回支付URL" style="verticalAlign=bottom;endArrow=block;shadow=0;strokeWidth=1;strokeColor=#788AA3;fontColor=#46495D;exitX=0;exitY=0.913;exitDx=0;exitDy=0;exitPerimeter=0;entryX=1;entryY=0.714;entryDx=0;entryDy=0;entryPerimeter=0;" edge="1" parent="1" source="mdC14NxBIMde7mDdin4W-9" target="3nuBFxr9cyL0pnOWT2aG-6">
          <mxGeometry relative="1" as="geometry">
            <mxPoint x="500" y="619.9999999999999" as="sourcePoint" />
            <mxPoint x="350" y="621" as="targetPoint" />
          </mxGeometry>
        </mxCell>
        <mxCell id="mdC14NxBIMde7mDdin4W-25" value="调起支付宝" style="verticalAlign=bottom;endArrow=block;entryX=-0.1;entryY=0.157;shadow=0;strokeWidth=1;strokeColor=#788AA3;fontColor=#46495D;entryDx=0;entryDy=0;entryPerimeter=0;exitX=0.9;exitY=0.859;exitDx=0;exitDy=0;exitPerimeter=0;" edge="1" parent="1" source="3nuBFxr9cyL0pnOWT2aG-6" target="mdC14NxBIMde7mDdin4W-26">
          <mxGeometry relative="1" as="geometry">
            <mxPoint x="352" y="710.21" as="sourcePoint" />
            <mxPoint x="515" y="710" as="targetPoint" />
          </mxGeometry>
        </mxCell>
        <mxCell id="mdC14NxBIMde7mDdin4W-26" value="" style="points=[];perimeter=orthogonalPerimeter;shadow=0;strokeWidth=1;fillColor=#B2C9AB;strokeColor=#788AA3;fontColor=#46495D;" vertex="1" parent="1">
          <mxGeometry x="845" y="700" width="10" height="70" as="geometry" />
        </mxCell>
        <mxCell id="mdC14NxBIMde7mDdin4W-27" value="支付完成" style="verticalAlign=bottom;endArrow=block;entryX=1.1;entryY=0.938;shadow=0;strokeWidth=1;strokeColor=#788AA3;fontColor=#46495D;exitX=0;exitY=0.871;exitDx=0;exitDy=0;exitPerimeter=0;entryDx=0;entryDy=0;entryPerimeter=0;" edge="1" parent="1" source="mdC14NxBIMde7mDdin4W-26" target="3nuBFxr9cyL0pnOWT2aG-6">
          <mxGeometry relative="1" as="geometry">
            <mxPoint x="680" y="760" as="sourcePoint" />
            <mxPoint x="520" y="760.98" as="targetPoint" />
          </mxGeometry>
        </mxCell>
        <mxCell id="mdC14NxBIMde7mDdin4W-28" value="支付完成" style="verticalAlign=bottom;endArrow=block;shadow=0;strokeWidth=1;strokeColor=#788AA3;fontColor=#46495D;exitX=0;exitY=0.986;exitDx=0;exitDy=0;exitPerimeter=0;entryX=1;entryY=0.955;entryDx=0;entryDy=0;entryPerimeter=0;" edge="1" parent="1" source="3nuBFxr9cyL0pnOWT2aG-6" target="3nuBFxr9cyL0pnOWT2aG-2">
          <mxGeometry relative="1" as="geometry">
            <mxPoint x="330" y="792.1500000000001" as="sourcePoint" />
            <mxPoint x="176" y="789" as="targetPoint" />
          </mxGeometry>
        </mxCell>
        <mxCell id="mdC14NxBIMde7mDdin4W-29" value="" style="points=[];perimeter=orthogonalPerimeter;shadow=0;strokeWidth=1;fillColor=#B2C9AB;strokeColor=#788AA3;fontColor=#46495D;" vertex="1" parent="1">
          <mxGeometry x="845" y="860" width="10" height="40" as="geometry" />
        </mxCell>
        <mxCell id="mdC14NxBIMde7mDdin4W-30" value="支付成功回调" style="verticalAlign=bottom;endArrow=block;entryX=0.6;entryY=0;shadow=0;strokeWidth=1;strokeColor=#788AA3;fontColor=#46495D;exitX=0.1;exitY=0.25;exitDx=0;exitDy=0;exitPerimeter=0;entryDx=0;entryDy=0;entryPerimeter=0;" edge="1" parent="1" source="mdC14NxBIMde7mDdin4W-29" target="mdC14NxBIMde7mDdin4W-31">
          <mxGeometry relative="1" as="geometry">
            <mxPoint x="839" y="870.6500000000001" as="sourcePoint" />
            <mxPoint x="340" y="870" as="targetPoint" />
          </mxGeometry>
        </mxCell>
        <mxCell id="mdC14NxBIMde7mDdin4W-31" value="" style="points=[];perimeter=orthogonalPerimeter;shadow=0;strokeWidth=1;fillColor=#B2C9AB;strokeColor=#788AA3;fontColor=#46495D;" vertex="1" parent="1">
          <mxGeometry x="675" y="870" width="10" height="160" as="geometry" />
        </mxCell>
        <mxCell id="mdC14NxBIMde7mDdin4W-32" value="" style="points=[];perimeter=orthogonalPerimeter;shadow=0;strokeWidth=1;fillColor=#B2C9AB;strokeColor=#788AA3;fontColor=#46495D;" vertex="1" parent="1">
          <mxGeometry x="505" y="890" width="10" height="360" as="geometry" />
        </mxCell>
        <mxCell id="mdC14NxBIMde7mDdin4W-33" value="支付成功回调" style="verticalAlign=bottom;endArrow=block;shadow=0;strokeWidth=1;strokeColor=#788AA3;fontColor=#46495D;exitX=-0.1;exitY=0.194;exitDx=0;exitDy=0;exitPerimeter=0;entryX=1.1;entryY=0.031;entryDx=0;entryDy=0;entryPerimeter=0;" edge="1" parent="1" source="mdC14NxBIMde7mDdin4W-31" target="mdC14NxBIMde7mDdin4W-32">
          <mxGeometry relative="1" as="geometry">
            <mxPoint x="680" y="910" as="sourcePoint" />
            <mxPoint x="540" y="900" as="targetPoint" />
          </mxGeometry>
        </mxCell>
        <mxCell id="mdC14NxBIMde7mDdin4W-34" value="" style="points=[];perimeter=orthogonalPerimeter;shadow=0;strokeWidth=1;fillColor=#B2C9AB;strokeColor=#788AA3;fontColor=#46495D;" vertex="1" parent="1">
          <mxGeometry x="510" y="910" width="10" height="80" as="geometry" />
        </mxCell>
        <mxCell id="mdC14NxBIMde7mDdin4W-35" value="更新业务订单" style="verticalAlign=bottom;endArrow=block;entryX=1.2;entryY=0.775;shadow=0;strokeWidth=1;strokeColor=#788AA3;fontColor=#46495D;edgeStyle=orthogonalEdgeStyle;entryDx=0;entryDy=0;entryPerimeter=0;exitX=1;exitY=0.175;exitDx=0;exitDy=0;exitPerimeter=0;" edge="1" parent="1" source="mdC14NxBIMde7mDdin4W-34" target="mdC14NxBIMde7mDdin4W-34">
          <mxGeometry relative="1" as="geometry">
            <mxPoint x="532" y="924.54" as="sourcePoint" />
            <mxPoint x="530" y="975.5" as="targetPoint" />
            <Array as="points">
              <mxPoint x="571" y="924" />
              <mxPoint x="571" y="972" />
            </Array>
          </mxGeometry>
        </mxCell>
        <mxCell id="mdC14NxBIMde7mDdin4W-36" value="通知游戏发货" style="verticalAlign=bottom;endArrow=block;shadow=0;strokeWidth=1;strokeColor=#788AA3;fontColor=#46495D;exitX=1.2;exitY=0.414;exitDx=0;exitDy=0;exitPerimeter=0;entryX=-0.1;entryY=0.083;entryDx=0;entryDy=0;entryPerimeter=0;" edge="1" parent="1" source="mdC14NxBIMde7mDdin4W-32" target="mdC14NxBIMde7mDdin4W-38">
          <mxGeometry relative="1" as="geometry">
            <mxPoint x="570" y="1090" as="sourcePoint" />
            <mxPoint x="1000" y="1040" as="targetPoint" />
          </mxGeometry>
        </mxCell>
        <mxCell id="mdC14NxBIMde7mDdin4W-37" value="success" style="verticalAlign=bottom;endArrow=block;shadow=0;strokeWidth=1;strokeColor=#788AA3;fontColor=#46495D;entryX=-0.2;entryY=0.819;entryDx=0;entryDy=0;entryPerimeter=0;exitX=1.1;exitY=0.306;exitDx=0;exitDy=0;exitPerimeter=0;" edge="1" parent="1" source="mdC14NxBIMde7mDdin4W-32" target="mdC14NxBIMde7mDdin4W-31">
          <mxGeometry relative="1" as="geometry">
            <mxPoint x="520" y="1019" as="sourcePoint" />
            <mxPoint x="640" y="1020" as="targetPoint" />
          </mxGeometry>
        </mxCell>
        <mxCell id="mdC14NxBIMde7mDdin4W-38" value="" style="points=[];perimeter=orthogonalPerimeter;shadow=0;strokeWidth=1;fillColor=#B2C9AB;strokeColor=#788AA3;fontColor=#46495D;" vertex="1" parent="1">
          <mxGeometry x="995" y="1030" width="10" height="120" as="geometry" />
        </mxCell>
        <mxCell id="mdC14NxBIMde7mDdin4W-39" value="success" style="verticalAlign=bottom;endArrow=block;shadow=0;strokeWidth=1;strokeColor=#788AA3;fontColor=#46495D;exitX=-0.1;exitY=0.871;exitDx=0;exitDy=0;exitPerimeter=0;entryX=1.3;entryY=0.673;entryDx=0;entryDy=0;entryPerimeter=0;" edge="1" parent="1" source="mdC14NxBIMde7mDdin4W-38" target="mdC14NxBIMde7mDdin4W-32">
          <mxGeometry relative="1" as="geometry">
            <mxPoint x="875" y="1100" as="sourcePoint" />
            <mxPoint x="520" y="1088" as="targetPoint" />
          </mxGeometry>
        </mxCell>
        <mxCell id="mdC14NxBIMde7mDdin4W-40" value="" style="points=[];perimeter=orthogonalPerimeter;shadow=0;strokeWidth=1;fillColor=#B2C9AB;strokeColor=#788AA3;fontColor=#46495D;" vertex="1" parent="1">
          <mxGeometry x="510" y="1160" width="10" height="80" as="geometry" />
        </mxCell>
        <mxCell id="mdC14NxBIMde7mDdin4W-41" value="更新业务订单" style="verticalAlign=bottom;endArrow=block;entryX=1.2;entryY=0.775;shadow=0;strokeWidth=1;strokeColor=#788AA3;fontColor=#46495D;edgeStyle=orthogonalEdgeStyle;entryDx=0;entryDy=0;entryPerimeter=0;exitX=1;exitY=0.175;exitDx=0;exitDy=0;exitPerimeter=0;" edge="1" parent="1" source="mdC14NxBIMde7mDdin4W-40" target="mdC14NxBIMde7mDdin4W-40">
          <mxGeometry relative="1" as="geometry">
            <mxPoint x="532" y="1174.54" as="sourcePoint" />
            <mxPoint x="530" y="1225.5" as="targetPoint" />
            <Array as="points">
              <mxPoint x="571" y="1174" />
              <mxPoint x="571" y="1222" />
            </Array>
          </mxGeometry>
        </mxCell>
        <mxCell id="mdC14NxBIMde7mDdin4W-42" value="" style="points=[];perimeter=orthogonalPerimeter;shadow=0;strokeWidth=1;fillColor=#B2C9AB;strokeColor=#788AA3;fontColor=#46495D;" vertex="1" parent="1">
          <mxGeometry x="1000" y="1060" width="10" height="40" as="geometry" />
        </mxCell>
        <mxCell id="mdC14NxBIMde7mDdin4W-45" value="游戏内添加道具" style="verticalAlign=bottom;endArrow=block;shadow=0;strokeWidth=1;strokeColor=#788AA3;fontColor=#46495D;exitX=0;exitY=0.125;exitDx=0;exitDy=0;exitPerimeter=0;entryX=1.1;entryY=0.033;entryDx=0;entryDy=0;entryPerimeter=0;" edge="1" parent="1" source="mdC14NxBIMde7mDdin4W-42" target="mdC14NxBIMde7mDdin4W-46">
          <mxGeometry relative="1" as="geometry">
            <mxPoint x="966" y="1060" as="sourcePoint" />
            <mxPoint x="490" y="1060.93" as="targetPoint" />
          </mxGeometry>
        </mxCell>
        <mxCell id="mdC14NxBIMde7mDdin4W-46" value="" style="points=[];perimeter=orthogonalPerimeter;shadow=0;strokeWidth=1;fillColor=#B2C9AB;strokeColor=#788AA3;fontColor=#46495D;" vertex="1" parent="1">
          <mxGeometry x="165" y="1060" width="10" height="60" as="geometry" />
        </mxCell>
        <mxCell id="mdC14NxBIMde7mDdin4W-47" value="success" style="verticalAlign=bottom;endArrow=block;shadow=0;strokeWidth=1;strokeColor=#788AA3;fontColor=#46495D;entryX=0.1;entryY=1.025;entryDx=0;entryDy=0;entryPerimeter=0;exitX=1;exitY=0.683;exitDx=0;exitDy=0;exitPerimeter=0;" edge="1" parent="1" source="mdC14NxBIMde7mDdin4W-46" target="mdC14NxBIMde7mDdin4W-42">
          <mxGeometry relative="1" as="geometry">
            <mxPoint x="190" y="1120" as="sourcePoint" />
            <mxPoint x="349" y="1120.08" as="targetPoint" />
          </mxGeometry>
        </mxCell>
      </root>
    </mxGraphModel>
  </diagram>
</mxfile>
